<?xml version="1.0" standalone="no"?>
<!DOCTYPE svg PUBLIC "-//W3C//DTD SVG 20010904//EN"
 "http://www.w3.org/TR/2001/REC-SVG-20010904/DTD/svg10.dtd">
<svg version="1.0" xmlns="http://www.w3.org/2000/svg"
 width="351.000000pt" height="139.000000pt" viewBox="0 0 351.000000 139.000000"
 preserveAspectRatio="xMidYMid meet">

<g transform="translate(0.000000,139.000000) scale(0.100000,-0.100000)"
fill="#000000" stroke="none">
<path d="M648 1161 c-68 -14 -171 -72 -225 -129 -144 -149 -173 -367 -72 -548
25 -46 37 -60 45 -52 3 3 -5 23 -18 45 -54 87 -63 121 -63 238 0 105 2 114 33
177 61 125 167 214 294 248 29 8 80 11 130 8 178 -10 315 -110 384 -278 34
-84 36 -228 4 -309 -46 -117 -124 -200 -240 -255 -60 -28 -73 -31 -175 -30
-103 0 -114 2 -172 31 -35 18 -79 44 -98 59 -44 33 -46 15 -3 -22 82 -69 231
-106 347 -85 133 24 242 95 312 204 50 77 69 146 69 249 0 138 -37 227 -134
324 -111 110 -261 155 -418 125z"/>
<path d="M605 1077 c-78 -29 -174 -120 -212 -203 -32 -71 -43 -189 -23 -262
16 -56 49 -122 61 -122 5 0 9 94 9 215 l0 215 30 0 30 0 0 -147 c0 -165 -4
-164 59 -8 18 44 39 99 48 121 19 55 48 64 67 21 7 -18 23 -52 34 -77 11 -25
28 -62 36 -82 14 -37 17 -38 64 -38 l50 0 -10 -39 c-8 -30 -16 -41 -33 -43
l-23 -3 23 -55 c13 -30 30 -56 39 -58 9 -2 40 4 70 12 62 18 106 62 106 104 0
35 -42 71 -92 79 -98 15 -137 87 -82 152 34 41 85 62 152 62 61 1 66 -2 58
-29 -5 -16 -18 -20 -67 -24 -48 -4 -65 -10 -87 -31 -37 -38 -22 -56 64 -80 95
-26 109 -41 109 -121 0 -58 -3 -68 -30 -96 -56 -59 -90 -73 -177 -74 l-80 -1
-27 65 c-38 93 -35 91 -79 74 -47 -19 -169 -110 -196 -147 l-21 -29 30 -24
c131 -107 320 -112 465 -14 91 62 138 139 161 262 32 172 -70 356 -234 421
-88 35 -202 37 -292 4z m327 -402 c10 -21 9 -29 -5 -43 -13 -13 -21 -14 -35
-6 -23 15 -26 38 -7 58 23 22 34 20 47 -9z"/>
<path d="M626 788 c-8 -23 -24 -67 -35 -95 -10 -29 -15 -53 -11 -53 5 0 11 4
14 9 3 5 18 12 32 15 15 4 33 13 40 21 8 7 19 15 26 17 9 3 6 19 -11 59 -32
75 -36 77 -55 27z"/>
<path d="M1332 770 c0 -19 2 -27 5 -17 2 9 2 25 0 35 -3 9 -5 1 -5 -18z"/>
<path d="M1367 793 c-10 -10 -8 -53 2 -53 5 0 11 10 13 23 l3 22 20 -22 c28
-33 45 -29 44 10 l-1 32 -7 -28 -6 -29 -22 26 c-23 27 -34 31 -46 19z"/>
<path d="M1474 785 c-11 -28 4 -45 41 -45 24 0 35 4 35 15 0 9 -9 15 -22 15
-19 0 -20 -2 -8 -10 12 -8 11 -10 -7 -10 -14 0 -23 6 -23 15 0 10 10 15 30 15
17 0 30 5 30 10 0 16 -70 12 -76 -5z"/>
<path d="M1570 771 c0 -29 2 -31 38 -30 l37 2 -35 7 -35 7 35 4 c49 6 47 33
-2 37 -36 3 -38 2 -38 -27z m53 2 c-7 -2 -21 -2 -30 0 -10 3 -4 5 12 5 17 0
24 -2 18 -5z"/>
<path d="M1667 793 c-11 -10 -8 -53 3 -53 6 0 10 10 10 23 l1 22 18 -22 c26
-31 51 -30 51 1 0 14 -4 28 -10 31 -6 3 -10 -4 -10 -16 l0 -22 -23 21 c-25 24
-30 26 -40 15z"/>
<path d="M1770 771 c0 -17 5 -31 10 -31 6 0 10 11 10 24 0 14 -4 28 -10 31 -6
4 -10 -7 -10 -24z"/>
<path d="M1807 794 c-4 -4 -7 -18 -7 -31 0 -21 4 -23 43 -22 l42 2 -35 7 -35
7 35 4 c48 6 48 33 0 37 -20 2 -39 0 -43 -4z m46 -21 c-7 -2 -19 -2 -25 0 -7
3 -2 5 12 5 14 0 19 -2 13 -5z"/>
<path d="M1900 791 c0 -6 15 -12 33 -14 l32 -4 -32 -1 c-22 -1 -33 -7 -33 -17
0 -18 17 -20 23 -2 3 8 14 3 34 -15 35 -34 48 -36 31 -5 -6 12 -11 32 -9 45 2
20 -2 22 -38 22 -23 0 -41 -4 -41 -9z"/>
<path d="M1997 793 c-11 -10 -8 -53 3 -53 6 0 10 14 10 30 0 31 -2 35 -13 23z"/>
<path d="M2030 791 c0 -5 15 -12 33 -14 l32 -4 -32 -1 c-22 -1 -33 -7 -33 -17
0 -11 11 -15 41 -15 38 0 40 1 37 28 -3 23 -8 27 -40 30 -21 2 -38 -1 -38 -7z
m53 -38 c-7 -2 -19 -2 -25 0 -7 3 -2 5 12 5 14 0 19 -2 13 -5z"/>
<path d="M2195 791 c-4 -7 8 -11 32 -12 l38 -2 -33 -6 c-48 -9 -44 -25 6 -29
42 -3 43 -2 40 25 -3 24 -8 28 -40 31 -20 2 -39 -2 -43 -7z m58 -38 c-7 -2
-21 -2 -30 0 -10 3 -4 5 12 5 17 0 24 -2 18 -5z"/>
<path d="M2290 791 c0 -6 15 -12 33 -14 l32 -4 -32 -1 c-22 -1 -33 -7 -33 -17
0 -8 5 -15 10 -15 6 0 10 5 10 10 0 6 14 10 30 10 23 0 30 4 30 20 0 17 -7 20
-40 20 -22 0 -40 -4 -40 -9z"/>
<path d="M2391 773 c-1 -32 0 -33 37 -32 35 1 36 2 7 8 -20 4 -31 14 -36 31
-6 23 -7 22 -8 -7z"/>
<path d="M2470 770 c0 -16 5 -30 10 -30 6 0 10 14 10 30 0 17 -4 30 -10 30 -5
0 -10 -13 -10 -30z"/>
<path d="M2510 770 c0 -27 3 -30 33 -29 27 1 29 2 9 7 -30 9 -33 26 -4 30 33
5 27 22 -8 22 -27 0 -30 -3 -30 -30z"/>
<path d="M2590 791 c0 -6 15 -12 33 -14 l32 -4 -32 -1 c-22 -1 -33 -7 -33 -17
0 -11 11 -15 43 -15 35 0 44 4 44 18 0 9 -4 23 -10 30 -11 14 -77 17 -77 3z
m53 -38 c-7 -2 -19 -2 -25 0 -7 3 -2 5 12 5 14 0 19 -2 13 -5z"/>
<path d="M2697 793 c-4 -3 -7 -17 -7 -30 0 -20 4 -23 38 -22 30 2 32 3 10 6
-35 5 -37 33 -3 33 14 0 25 5 25 10 0 11 -53 14 -63 3z"/>
<path d="M2782 770 c0 -19 2 -27 5 -17 2 9 2 25 0 35 -3 9 -5 1 -5 -18z"/>
<path d="M2817 794 c-4 -4 -7 -18 -7 -31 0 -20 5 -23 41 -23 38 0 40 1 37 28
-2 22 -9 28 -33 30 -17 2 -34 0 -38 -4z m63 -29 c0 -9 -9 -15 -25 -15 -16 0
-25 6 -25 15 0 9 9 15 25 15 16 0 25 -6 25 -15z"/>
<path d="M2917 793 c-4 -3 -7 -18 -6 -32 l0 -26 11 25 10 25 15 -22 c23 -34
53 -30 53 7 0 17 -4 30 -10 30 -5 0 -10 -9 -10 -20 0 -11 -4 -20 -10 -20 -5 0
-14 9 -20 20 -11 21 -22 25 -33 13z"/>
<path d="M3014 786 c-12 -30 4 -46 43 -45 l38 2 -35 7 -35 7 38 2 c31 1 38 4
35 19 -4 23 -75 30 -84 8z m59 -13 c-7 -2 -21 -2 -30 0 -10 3 -4 5 12 5 17 0
24 -2 18 -5z"/>
<path d="M3117 793 c-17 -17 -5 -33 26 -34 l32 -2 -35 -7 -35 -7 43 -2 c52 -1
61 25 10 32 l-33 4 33 1 c17 1 32 7 32 12 0 11 -63 14 -73 3z"/>
<path d="M1330 663 c0 -49 10 -54 91 -51 l74 3 3 38 c2 28 0 37 -12 37 -9 0
-16 -8 -16 -18 0 -27 -20 -42 -55 -42 -35 0 -55 15 -55 42 0 10 -7 18 -15 18
-10 0 -15 -10 -15 -27z"/>
<path d="M1594 665 c-11 -45 0 -55 60 -55 30 0 58 -4 61 -10 4 -6 -18 -10 -59
-10 -59 0 -66 -2 -66 -20 0 -18 7 -20 74 -20 80 0 100 11 94 52 -3 20 -10 24
-62 28 -83 7 -88 30 -7 30 48 0 61 3 61 15 0 12 -15 15 -75 15 -71 0 -75 -1
-81 -25z"/>
<path d="M1786 674 c-3 -9 -6 -35 -6 -59 0 -53 16 -65 85 -65 69 0 85 12 85
66 0 62 -15 74 -93 74 -50 0 -66 -4 -71 -16z m124 -29 c6 -8 10 -22 8 -32 -5
-26 -101 -26 -106 0 -5 27 17 47 53 47 18 0 38 -7 45 -15z"/>
<path d="M1982 670 c-6 -11 -12 -42 -12 -70 0 -43 3 -50 19 -50 14 0 21 8 23
28 3 25 7 27 56 30 70 4 67 22 -4 22 -73 0 -70 24 4 28 37 2 52 7 52 18 0 11
-15 14 -63 14 -51 0 -64 -3 -75 -20z"/>
<path d="M2130 676 c0 -10 13 -16 38 -18 l37 -3 3 -52 c2 -38 7 -53 18 -53 11
0 14 16 14 70 l0 70 -55 0 c-41 0 -55 -4 -55 -14z"/>
<path d="M2250 620 c0 -54 3 -70 14 -70 11 0 16 15 18 53 l3 52 38 3 c24 2 37
8 37 18 0 10 -14 14 -55 14 l-55 0 0 -70z"/>
<path d="M2373 661 c11 -55 41 -106 64 -109 17 -3 26 6 42 40 13 29 20 36 20
23 1 -29 29 -65 50 -65 18 0 28 16 56 84 19 50 19 56 -4 56 -14 0 -23 -12 -33
-42 -18 -53 -30 -52 -41 1 -7 34 -12 41 -31 41 -19 0 -26 -8 -37 -45 -7 -25
-16 -45 -19 -45 -8 0 -30 52 -30 72 0 12 -7 18 -21 18 -18 0 -21 -4 -16 -29z"/>
<path d="M2640 675 c0 -12 13 -15 59 -15 40 0 63 -5 71 -15 11 -13 3 -15 -59
-15 l-72 0 3 -37 3 -38 83 -1 82 -1 0 54 c0 73 -12 83 -99 83 -56 0 -71 -3
-71 -15z m113 -82 c-13 -2 -35 -2 -50 0 -16 2 -5 4 22 4 28 0 40 -2 28 -4z"/>
<path d="M2830 675 c0 -12 14 -15 66 -15 48 0 65 -3 62 -12 -3 -8 -28 -14 -67
-16 l-62 -3 3 -37 c2 -26 8 -38 21 -40 12 -3 17 3 17 22 0 22 5 26 28 26 20 0
41 -13 72 -45 24 -25 52 -45 62 -45 26 0 22 10 -17 50 -36 35 -43 50 -25 50
11 0 13 39 4 64 -9 23 -164 24 -164 1z"/>
<path d="M3033 675 c-7 -8 -13 -34 -13 -59 0 -57 15 -66 104 -66 52 0 66 3 66
15 0 11 -13 15 -54 15 -30 0 -61 3 -70 6 -32 12 -3 24 60 24 61 0 64 1 64 24
0 51 -8 56 -79 56 -44 -1 -70 -5 -78 -15z m120 -30 c-2 -5 -25 -11 -53 -13
-46 -3 -60 4 -43 22 11 11 98 2 96 -9z"/>
<path d="M1380 570 c0 -16 7 -20 35 -20 28 0 35 4 35 20 0 16 -7 20 -35 20
-28 0 -35 -4 -35 -20z"/>
</g>
</svg>
